<?xml version="1.0" encoding="UTF-8"?>
<!--
Font Awesome Free 5.0.8 by @fontawesome - https://fontawesome.com
License - https://fontawesome.com/license (Icons: CC BY 4.0, Fonts: SIL OFL 1.1, Code: MIT License)
-->
<svg xmlns="http://www.w3.org/2000/svg" style="display: none;">
  <symbol id="angle-left" viewBox="0 0 256 512">
    <title id="angle-left-title">angle-left</title>
    <path d="M31.7 239l136-136c9.4-9.4 24.6-9.4 33.9 0l22.6 22.6c9.4 9.4 9.4 24.6 0 33.9L127.9 256l96.4 96.4c9.4 9.4 9.4 24.6 0 33.9L201.7 409c-9.4 9.4-24.6 9.4-33.9 0l-136-136c-9.5-9.4-9.5-24.6-.1-34z"></path>
  </symbol>
  <symbol id="angle-right" viewBox="0 0 256 512">
    <title id="angle-right-title">angle-right</title>
    <path d="M224.3 273l-136 136c-9.4 9.4-24.6 9.4-33.9 0l-22.6-22.6c-9.4-9.4-9.4-24.6 0-33.9l96.4-96.4-96.4-96.4c-9.4-9.4-9.4-24.6 0-33.9L54.3 103c9.4-9.4 24.6-9.4 33.9 0l136 136c9.5 9.4 9.5 24.6.1 34z"></path>
  </symbol>
  <symbol id="shopping-cart" viewBox="0 0 576 512">
    <title id="shopping-cart-title">shopping-cart</title>
    <path d="M528.12 301.319l47.273-208C578.806 78.301 567.391 64 551.99 64H159.208l-9.166-44.81C147.758 8.021 137.93 0 126.529 0H24C10.745 0 0 10.745 0 24v16c0 13.255 10.745 24 24 24h69.883l70.248 343.435C147.325 417.1 136 435.222 136 456c0 30.928 25.072 56 56 56s56-25.072 56-56c0-15.674-6.447-29.835-16.824-40h209.647C430.447 426.165 424 440.326 424 456c0 30.928 25.072 56 56 56s56-25.072 56-56c0-22.172-12.888-41.332-31.579-50.405l5.517-24.276c3.413-15.018-8.002-29.319-23.403-29.319H218.117l-6.545-32h293.145c11.206 0 20.92-7.754 23.403-18.681z"></path>
  </symbol>
  <symbol id="times" viewBox="0 0 384 512">
    <title id="times-title">Times</title>
    <path d="M323.1 441l53.9-53.9c9.4-9.4 9.4-24.5 0-33.9L279.8 256l97.2-97.2c9.4-9.4 9.4-24.5 0-33.9L323.1 71c-9.4-9.4-24.5-9.4-33.9 0L192 168.2 94.8 71c-9.4-9.4-24.5-9.4-33.9 0L7 124.9c-9.4 9.4-9.4 24.5 0 33.9l97.2 97.2L7 353.2c-9.4 9.4-9.4 24.5 0 33.9L60.9 441c9.4 9.4 24.5 9.4 33.9 0l97.2-97.2 97.2 97.2c9.3 9.3 24.5 9.3 33.9 0z"></path>
  </symbol>
  <symbol id="user" viewBox="0 0 512 512">
    <title id="user-title">User</title>
    <path d="M256 0c88.366 0 160 71.634 160 160s-71.634 160-160 160S96 248.366 96 160 167.634 0 256 0zm183.283 333.821l-71.313-17.828c-74.923 53.89-165.738 41.864-223.94 0l-71.313 17.828C29.981 344.505 0 382.903 0 426.955V464c0 26.51 21.49 48 48 48h416c26.51 0 48-21.49 48-48v-37.045c0-44.052-29.981-82.45-72.717-93.134z"></path>
  </symbol>
  <symbol id="phone" viewBox="0 0 512 512">
    <title id="phone-title">Phone</title>
    <path d="M493.397 24.615l-104-23.997c-11.314-2.611-22.879 3.252-27.456 13.931l-48 111.997a24 24 0 0 0 6.862 28.029l60.617 49.596c-35.973 76.675-98.938 140.508-177.249 177.248l-49.596-60.616a24 24 0 0 0-28.029-6.862l-111.997 48C3.873 366.516-1.994 378.08.618 389.397l23.997 104C27.109 504.204 36.748 512 48 512c256.087 0 464-207.532 464-464 0-11.176-7.714-20.873-18.603-23.385z"></path>
  </symbol>
  <symbol id="search" viewBox="0 0 512 512">
    <title id="search-title">Search</title>
    <path d="M505 442.7L405.3 343c-4.5-4.5-10.6-7-17-7H372c27.6-35.3 44-79.7 44-128C416 93.1 322.9 0 208 0S0 93.1 0 208s93.1 208 208 208c48.3 0 92.7-16.4 128-44v16.3c0 6.4 2.5 12.5 7 17l99.7 99.7c9.4 9.4 24.6 9.4 33.9 0l28.3-28.3c9.4-9.4 9.4-24.6.1-34zM208 336c-70.7 0-128-57.2-128-128 0-70.7 57.2-128 128-128 70.7 0 128 57.2 128 128 0 70.7-57.2 128-128 128z"></path>
  </symbol>
  <symbol id="facebook" viewBox="0 0 448 512">
    <title id="facebook-title">Facebook</title>
    <path d="M448 56.7v398.5c0 13.7-11.1 24.7-24.7 24.7H309.1V306.5h58.2l8.7-67.6h-67v-43.2c0-19.6 5.4-32.9 33.5-32.9h35.8v-60.5c-6.2-.8-27.4-2.7-52.2-2.7-51.6 0-87 31.5-87 89.4v49.9h-58.4v67.6h58.4V480H24.7C11.1 480 0 468.9 0 455.3V56.7C0 43.1 11.1 32 24.7 32h398.5c13.7 0 24.8 11.1 24.8 24.7z"></path>
  </symbol>
  <symbol id="logo" viewBox="0 0 90 26">
    <title id="logo-title">Logo</title>
    <path d="m 0.25304156,21.997178 c 0.39903,-0.9625 1.75505104,-5.70764 3.01338004,-10.544756 1.741747,-6.6954142 1.946392,-8.5113542 0.857314,-7.6075002 -0.786806,0.652991 -1.756474,0.861339 -2.154818,0.462995 -1.06917502,-1.069174 2.625246,-3.44247105 6.48632,-4.16681307 4.0492844,-0.75965 7.2862734,1.62204807 7.2862734,5.36106107 0,3.019929 -5.983076,9.2450132 -8.8856024,9.2450132 -1.637289,0 -2.329171,0.967302 -3.218715,4.5 -0.707566,2.810001 -1.692042,4.5 -2.621386,4.5 -1.02712204,0 -1.26347004,-0.542251 -0.76276604,-1.75 z M 8.8886326,12.668441 C 11.303631,11.375973 13.668754,6.1849568 13.00284,3.6385008 12.50412,1.7313918 9.3935086,0.22618573 7.8818116,1.1604668 c -0.482678,0.298311 -1.161464,2.239858 -1.508414,4.314547 -0.34695,2.07469 -0.908542,4.7846642 -1.247983,6.0221642 -0.687336,2.505817 0.550001,2.890925 3.763218,1.171263 z m 21.3155754,7.01838 c -0.360435,-0.583196 -0.101422,-2.397625 0.575585,-4.032065 1.545303,-3.730691 0.340198,-5.140519 -1.874362,-2.192777 -0.915156,1.21814 -2.470328,3.24314 -3.455937,4.5 l -1.792017,2.285199 1.123038,-2.335646 c 1.658431,-3.449138 0.110696,-4.089973 -2.203914,-0.912524 -1.229008,1.687155 -2.934902,2.74817 -4.418497,2.74817 -2.1469,0 -2.416593,-0.440073 -2.416593,-3.943296 0,-6.1013478 5.883722,-9.1491452 7.546792,-3.909276 0.804719,2.535446 2.60842,1.912179 4.257774,-1.47127 1.421063,-2.9151372 3.195434,-3.5682382 3.195434,-1.1761582 0,0.8250002 0.675,1.5000002 1.5,1.5000002 1.810614,0 1.944746,2.314986 0.287855,4.96809 -2.044421,3.273639 0.106909,3.604782 3.122486,0.480628 1.565431,-1.621795 3.114758,-4.411218 3.442948,-6.1987178 0.508773,-2.7710424 0.305652,-3.2500004 -1.378289,-3.2500004 -1.08625,0 -1.975,-0.476558 -1.975,-1.059017 0,-0.58246 0.409391,-0.806 0.909758,-0.496756 1.510606,0.933606 3.859593,-0.454222 4.424392,-2.614018 0.292179,-1.117292 0.991869,-1.74675205 1.554868,-1.3988 0.562999,0.347952 0.792188,1.23578 0.509309,1.972951 -0.328455,0.855939 0.454808,1.525572 2.167373,1.85295 2.044018,0.390739 2.798913,0.06441 3.174631,-1.372336 0.549753,-2.10226 2.262791,-2.58482 2.254092,-0.634974 -0.0031,0.6875 -0.42426,2.825 -0.935984,4.75 -0.511724,1.9250004 -1.426559,5.4125002 -2.032967,7.7500002 -0.606408,2.3375 -1.58336,4.25 -2.171005,4.25 -0.593252,0 -0.779345,-0.75338 -0.418421,-1.693933 0.610873,-1.591911 0.537289,-1.591911 -1.221752,0 -2.31252,2.092801 -5.087084,2.189011 -5.849255,0.202826 -0.483177,-1.259139 -0.965977,-1.181355 -3.103474,0.5 -2.86885,2.256637 -3.86055,2.44898 -4.798868,0.93075 z m -9.732933,-2.628936 c 0.367985,-1.103955 -2.649592,-2.724213 -3.496431,-1.877374 -0.264225,0.264226 -0.199581,1.21224 0.143654,2.106697 0.658488,1.715993 2.752071,1.572796 3.352777,-0.229323 z m 23.451243,-1.060707 c 3.186386,-3.42932 4.408533,-8.8097952 2.194115,-9.6595472 -2.70098,-1.036463 -3.056998,-0.696441 -5.237877,5.0025502 -2.945653,7.697465 -1.638955,9.69673 3.043762,4.656997 z m -22.181007,-3.25 c 0,-1.111111 -0.666667,-2 -1.5,-2 -1.522411,0 -2.051262,2.115404 -0.833333,3.333333 1.267791,1.267791 2.333333,0.65891 2.333333,-1.333333 z m 29,4.95034 c 0,-3.149732 2.740257,-7.7331248 5.064393,-8.4707782 2.869849,-0.910855 3.287352,-0.205963 3.082697,5.2046742 l -0.17751,4.69297 2.430603,-2.283433 c 1.336831,-1.255887 2.683856,-3.292476 2.993389,-4.525752 0.44545,-1.774816 1.630877,-4.1214312 4.473831,-3.5780577 l 2.755484,0.8897879 0.01762,4.7263628 c 0.02107,5.650657 0.83173,5.560635 4.02149,-0.09486 2.632249,-4.6670158 4.887957,-6.1296492 6.890358,-4.4678038 1.143871,0.9493288 1.448812,0.9134438 1.453219,-0.171009 0.01114,-2.7424164 2.112484,-8.87244145 3.041427,-8.87244145 0.524148,0 0.952996,1.09570505 0.952996,2.43490005 0,2.432156 -0.434647,3.806265 -3.404023,10.7616032 -1.976283,4.629161 -0.530465,5.828894 2.895641,2.402788 1.37961,-1.37961 2.508382,-2.157278 2.508382,-1.72815 0,0.429127 -1.041503,1.758672 -2.314451,2.954545 -2.510224,2.358233 -5.685549,2.902378 -5.685549,0.974314 0,-0.933333 -0.266667,-0.933333 -1.2,0 -1.567395,1.567395 -4.509214,1.538507 -5.091667,-0.05 -0.366666,-1 -0.723333,-1 -1.783333,0 -0.72875,0.6875 -2.162573,1.25 -3.186273,1.25 -1.641428,0 -1.787527,-0.561049 -1.23692,-4.75 l 0.624353,-4.75 -2.56308,2.805764 c -1.409694,1.54317 -2.56308,3.68067 -2.56308,4.75 0,1.06933 -0.45,1.944236 -1,1.944236 -0.55,0 -1,-0.5051 -1,-1.122445 0,-0.749887 -0.524826,-0.686878 -1.581201,0.189836 -1.22784,1.019017 -1.999648,1.050957 -3.45364,0.142923 -1.186586,-0.741035 -2.094181,-0.81057 -2.477816,-0.189835 -1.16015,1.877162 -4.487343,1.083696 -4.487343,-1.070139 z M 81.706763,11.682251 80.467718,9.3670738 78.604615,11.66791 c -3.589881,4.433315 -1.898653,8.569363 1.936014,4.734695 2.102774,-2.102773 2.249393,-2.696267 1.166134,-4.720354 z m -24.923432,3.986786 c 1.15174,-2.152046 0.673441,-4.921859 -0.84992,-4.921859 -0.896107,0 -3.1919,4.34938 -3.1919,6.047053 0,1.778023 2.923657,0.964113 4.04182,-1.125194 z"></path>
  </symbol>
  <symbol id="home" viewBox="0 0 576 512">
    <title id="home-title">home</title>
    <path d="M488 312.7V456c0 13.3-10.7 24-24 24H348c-6.6 0-12-5.4-12-12V356c0-6.6-5.4-12-12-12h-72c-6.6 0-12 5.4-12 12v112c0 6.6-5.4 12-12 12H112c-13.3 0-24-10.7-24-24V312.7c0-3.6 1.6-7 4.4-9.3l188-154.8c4.4-3.6 10.8-3.6 15.3 0l188 154.8c2.7 2.3 4.3 5.7 4.3 9.3zm83.6-60.9L488 182.9V44.4c0-6.6-5.4-12-12-12h-56c-6.6 0-12 5.4-12 12V117l-89.5-73.7c-17.7-14.6-43.3-14.6-61 0L4.4 251.8c-5.1 4.2-5.8 11.8-1.6 16.9l25.5 31c4.2 5.1 11.8 5.8 16.9 1.6l235.2-193.7c4.4-3.6 10.8-3.6 15.3 0l235.2 193.7c5.1 4.2 12.7 3.5 16.9-1.6l25.5-31c4.2-5.2 3.4-12.7-1.7-16.9z"></path>
  </symbol>
  <symbol id="list" viewBox="0 0 512 512">
    <title id="list-title">List</title>
    <path d="M128 116V76c0-8.837 7.163-16 16-16h352c8.837 0 16 7.163 16 16v40c0 8.837-7.163 16-16 16H144c-8.837 0-16-7.163-16-16zm16 176h352c8.837 0 16-7.163 16-16v-40c0-8.837-7.163-16-16-16H144c-8.837 0-16 7.163-16 16v40c0 8.837 7.163 16 16 16zm0 160h352c8.837 0 16-7.163 16-16v-40c0-8.837-7.163-16-16-16H144c-8.837 0-16 7.163-16 16v40c0 8.837 7.163 16 16 16zM16 144h64c8.837 0 16-7.163 16-16V64c0-8.837-7.163-16-16-16H16C7.163 48 0 55.163 0 64v64c0 8.837 7.163 16 16 16zm0 160h64c8.837 0 16-7.163 16-16v-64c0-8.837-7.163-16-16-16H16c-8.837 0-16 7.163-16 16v64c0 8.837 7.163 16 16 16zm0 160h64c8.837 0 16-7.163 16-16v-64c0-8.837-7.163-16-16-16H16c-8.837 0-16 7.163-16 16v64c0 8.837 7.163 16 16 16z"></path>
  </symbol>
  <symbol id="info-circle" viewBox="0 0 512 512">
    <title id="info-circle-title">Info Circle</title>
    <path d="M256 8C119.043 8 8 119.083 8 256c0 136.997 111.043 248 248 248s248-111.003 248-248C504 119.083 392.957 8 256 8zm0 110c23.196 0 42 18.804 42 42s-18.804 42-42 42-42-18.804-42-42 18.804-42 42-42zm56 254c0 6.627-5.373 12-12 12h-88c-6.627 0-12-5.373-12-12v-24c0-6.627 5.373-12 12-12h12v-64h-12c-6.627 0-12-5.373-12-12v-24c0-6.627 5.373-12 12-12h64c6.627 0 12 5.373 12 12v100h12c6.627 0 12 5.373 12 12v24z"></path>
  </symbol>
</svg>
